<svg width="291" height="57" viewBox="0 0 291 57" fill="none" xmlns="http://www.w3.org/2000/svg">
  <path d="M142.154 30.2292C141.778 29.3186 141.968 28.3653 141.964 27.435C141.945 21.6171 141.954 15.796 141.954 9.97815C141.954 8.03886 141.961 6.09958 141.941 4.16029C141.938 3.85236 141.81 3.54772 141.722 3.171C140.988 3.171 140.326 3.19066 139.668 3.16445C139.285 3.14807 138.82 3.18738 138.544 2.98755C137.82 2.46342 137.11 2.55842 136.333 2.75497C135.911 2.86308 135.449 2.90238 135.016 2.86307C134.748 2.83686 134.502 2.60101 134.227 2.44705C133.922 2.94169 133.624 3.361 132.913 3.01703C132.366 2.75169 131.862 3.171 131.347 3.33479C131.069 4.14719 130.338 4.05874 129.703 4.17012C129.631 4.18322 129.572 4.29788 129.457 4.42236C129.863 4.51409 130.227 4.5927 130.532 4.66149C131.112 5.41165 131.387 6.13234 130.938 7.01026C130.686 7.5049 130.653 8.06506 130.784 8.63178C130.869 9.00522 130.892 9.4016 130.885 9.78814C130.846 12.5562 130.804 15.3275 130.738 18.0956C130.705 19.5468 130.568 20.9947 130.827 22.4459C130.889 21.9218 130.951 21.3976 131.013 20.8735C131.072 20.8768 131.131 20.8801 131.19 20.8833C131.19 21.545 131.19 22.2068 131.19 22.8685C131.19 25.1419 131.174 27.412 131.197 29.6854C131.21 31.022 131.207 32.3422 130.643 33.5935C130.538 33.8294 130.555 34.1242 130.519 34.3535C130.204 34.5107 129.962 34.6352 129.713 34.7531C129.447 34.8776 129.133 34.9464 129.071 35.3264C129.732 35.3952 130.162 34.7892 130.899 34.8219C130.846 35.1102 130.853 35.3297 130.764 35.5033C129.582 37.8946 127.564 39.264 125.107 40.06C123.623 40.5415 122.054 40.5317 120.518 40.6955C119.846 40.7676 119.201 40.5612 118.49 40.2794C118.847 40.1419 119.089 40.0469 119.715 39.8045C118.565 39.7881 117.812 39.7717 117.055 39.7684C116.442 39.7651 115.83 39.7815 115.273 39.4736C113.891 38.7136 112.715 37.7636 112.154 36.2109C112.004 35.7949 111.902 35.2445 111.591 35.0316C111.021 34.6483 111.057 34.1209 110.936 33.5968C110.697 32.5616 110.67 31.5134 110.684 30.4586C110.7 29.0172 110.71 27.5758 110.71 26.1378C110.71 23.5892 110.693 21.0406 110.693 18.492C110.693 17.352 110.7 17.352 111.24 16.4479C111.24 16.913 111.339 17.3782 111.224 17.7844C110.805 19.2553 110.955 20.7556 110.926 22.2428C110.916 22.7833 111.201 23.3238 111.204 23.8643C111.208 24.3983 110.959 24.9355 110.946 25.4728C110.906 26.8027 110.933 28.1327 110.949 29.4627C110.952 29.6232 111.044 29.7837 111.093 29.9443C111.299 29.4824 111.306 29.0467 111.319 28.6143C111.332 28.2277 111.244 27.7888 111.394 27.4645C111.738 26.7143 111.607 25.9445 111.65 25.1812C111.706 24.241 111.794 23.3042 111.827 22.364C111.86 21.3125 111.948 20.2478 111.824 19.2127C111.689 18.1022 111.683 17.0081 111.774 15.8582C111.863 16.4315 111.925 16.9589 112.04 17.4765C112.066 17.5911 112.276 17.7287 112.41 17.7386C112.502 17.7451 112.695 17.5453 112.692 17.4437C112.659 16.782 112.633 16.117 112.515 15.4651C112.338 14.4824 112.138 13.5095 112.276 12.5005C112.305 12.2843 112.299 12.0517 112.256 11.8388C111.892 10.083 111.909 8.30748 112.086 6.54182C112.19 5.50666 111.843 4.70408 111.24 3.95064C110.998 3.65255 110.693 3.40358 110.425 3.12841C109.976 2.6698 109.534 2.2079 109.072 1.73291C108.695 2.32911 108.138 2.58791 107.401 2.53877C106.739 2.49618 106.071 2.53221 105.406 2.52238C103.513 2.4929 101.662 2.84996 99.8177 3.1972C99.5261 3.25289 99.264 3.47892 98.907 3.66892C99.2477 4.01616 99.5032 4.27495 99.7816 4.55994C99.4704 5.83423 99.7489 7.09215 99.7521 8.35334C99.7587 11.7897 99.7554 15.226 99.7521 18.6623C99.7521 19.1046 99.7456 19.5534 99.6702 19.9858C99.6637 20.0283 99.644 20.0644 99.6178 20.1037C99.6113 20.1135 99.6047 20.1201 99.5982 20.1299C99.5261 20.2216 99.418 20.3068 99.3263 20.3952C99.3263 20.3952 99.3263 20.3952 99.3263 20.392C99.3197 20.1758 99.323 19.9563 99.3165 19.7401C99.3099 19.5435 99.3001 19.3503 99.2608 19.1635C98.8709 17.2046 98.6351 15.2358 98.7104 13.231C98.7497 12.2352 98.7268 11.2361 98.7072 10.2402C98.7039 9.98469 98.6122 9.72591 98.563 9.4704C98.3304 10.535 98.2715 11.58 98.278 12.625C98.2846 14.4529 98.337 16.2743 98.6777 18.0825C98.8316 18.9015 98.8939 19.7106 98.4025 20.4902C98.2158 20.7851 98.1798 21.247 98.2289 21.6106C98.3468 22.4852 98.4975 23.3664 98.7563 24.2083C98.9234 24.7521 99.0085 25.2762 99.0151 25.8331C99.038 28.1589 99.0708 30.4848 99.0937 32.8106C99.1035 33.6951 99.0937 34.5795 99.0937 35.464C99.1396 35.464 99.1821 35.464 99.228 35.464C99.2706 33.3675 99.3132 31.2709 99.3558 29.1777C99.5654 29.6494 99.6146 30.1211 99.6277 30.5961C99.6571 31.592 99.644 32.5911 99.6932 33.587C99.8013 35.8014 99.9585 38.0093 100.794 40.1026C100.85 40.2434 100.889 40.4531 100.827 40.571C100.669 40.8691 100.758 41.0558 100.954 41.2949C101.269 41.6749 101.587 42.0713 101.806 42.5103C102.658 44.2039 103.686 45.7664 104.964 47.1718C105.295 47.5354 105.446 48.1774 105.832 48.3511C106.756 48.7704 107.169 49.835 108.191 50.0676C109.557 51.1388 111.168 51.7612 112.718 52.4819C113.563 52.875 114.454 53.3008 115.361 53.4122C116.944 53.6055 118.526 53.9265 120.141 53.8249C120.858 53.7791 121.582 53.7856 122.3 53.7988C122.68 53.8053 123.105 53.7922 123.426 53.9527C123.869 54.1755 124.291 54.1591 124.714 54.0575C126.185 53.7005 127.675 53.6775 129.172 53.743C129.362 53.7496 129.552 53.6775 129.742 53.6448C129.742 53.5891 129.739 53.5334 129.739 53.4744C128.927 53.4515 128.114 53.4319 127.007 53.4024C127.783 52.9831 128.294 52.7374 128.9 52.6948C129.162 52.6784 129.454 52.6195 129.673 52.4851C131.039 51.6433 132.376 50.7588 133.749 49.9267C134.263 49.6155 134.823 49.2355 135.39 49.1897C136.648 49.0849 137.915 48.8981 139.19 49.0619C139.376 49.0848 139.602 49.1602 139.661 48.849C139.118 48.541 138.639 48.3674 137.955 48.6229C137.214 48.9014 136.366 48.7245 135.459 48.6819C135.635 48.4395 135.701 48.2724 135.825 48.184C137.188 47.2471 137.978 45.8614 138.78 44.479C139.029 44.0499 139.344 43.6535 139.583 43.2178C139.93 42.5889 140.303 41.9632 140.543 41.2917C141.385 38.9331 141.935 36.5188 141.941 33.9899C141.945 32.8368 141.781 31.6608 142.161 30.5273C142.19 30.452 142.194 30.321 142.154 30.2292Z" fill="#EEEEEE" />
  <path d="M53.1108 14.5317C53.5072 13.9945 53.3139 13.5162 53.1927 12.9855C53.0879 12.5302 53.0551 12.0617 53.006 11.6948C52.78 12.0355 52.5179 12.4286 52.1543 12.9757C52.4164 14.5776 52.685 16.1925 52.9503 17.8075C53.0781 17.0311 53.0781 16.2646 53.0781 15.498C53.0813 15.1705 52.9536 14.7446 53.1108 14.5317Z" fill="#EEEEEE" />
  <path d="M48.1905 2.77771C47.9219 2.75478 47.5812 2.76133 47.4076 2.60409C46.9228 2.16513 46.4183 2.24703 45.8549 2.33875C44.9802 2.47961 44.099 2.62375 43.2178 2.63685C42.068 2.65323 40.8822 2.7122 39.8503 2.01117C39.7226 1.92273 39.5424 1.85721 39.3884 1.86377C38.3041 1.90635 37.2198 1.97187 36.1323 2.02756C36.1323 2.06687 36.1323 2.10945 36.1355 2.14876C36.8923 2.16842 37.6457 2.18806 38.5367 2.21427C38.3336 2.46651 38.2517 2.67289 38.1436 2.68599C36.8398 2.86616 35.5328 3.16426 34.2323 2.63031C33.8687 2.48289 33.4526 2.35514 33.1382 2.7941C33.9014 3.01685 33.9014 3.01685 34.4354 3.46236C34.0128 3.51477 33.6263 3.5246 33.2659 3.62615C33.0497 3.68839 32.8728 3.89805 32.6173 4.08477C33.5542 4.41563 34.4518 4.0258 35.3526 4.41235C34.9235 4.94959 34.3666 5.36561 34.2126 5.8963C33.9178 6.92163 33.0923 7.29834 32.3946 7.89782C32.2406 7.6423 32.1325 7.45558 32.0015 7.23937C31.6215 7.44575 31.3725 7.78317 31.5887 8.15989C31.8868 8.67419 31.6149 8.98211 31.3725 9.35228C31.3299 9.4178 31.3856 9.5521 31.3889 9.57503C31.5428 9.68641 31.7623 9.79451 31.7525 9.84365C31.687 10.1057 31.5953 10.3711 31.4511 10.6004C30.0196 12.9033 28.5848 15.2062 27.1238 17.4927C26.8289 17.9513 26.3933 18.3182 26.0788 18.767C25.7086 19.2911 25.2697 19.2321 24.7062 18.9963C24.8078 18.6916 24.8503 18.1773 25.0207 18.1315C25.7152 17.9415 25.5809 17.4534 25.6758 16.9882C24.3852 16.9358 23.8676 15.845 22.9143 15.121C22.8718 15.6615 23.1371 15.8875 23.2845 16.1529C23.4745 16.4903 23.2878 16.6442 22.9766 16.7884C22.8357 16.6279 22.6719 16.4772 22.554 16.2937C21.7449 15.0358 20.9423 13.7746 20.143 12.5134C20.0251 12.3267 19.8646 12.1269 19.8514 11.9271C19.7892 10.7871 18.5116 10.145 18.6328 8.93625C18.6361 8.89367 18.5804 8.84125 18.5477 8.79866C18.0563 8.13367 17.6075 7.43265 17.0605 6.8168C16.3594 6.03388 15.7174 5.22475 15.2162 4.29442C14.8165 3.55081 14.1941 3.00375 13.3719 2.54513C12.589 3.16426 11.6423 3.12822 10.7054 3.09547C8.99539 3.03323 7.28869 2.79082 5.56889 2.97754C5.42147 2.99392 5.24786 2.91858 5.10372 2.84651C3.87857 2.23066 2.65996 1.60497 1.44791 0.98584C1.38239 1.63773 1.5167 2.05703 1.83446 1.98824C2.51583 1.84083 2.84996 2.30928 3.29547 2.60083C3.34789 2.63358 3.33478 2.76789 3.37737 2.98409C3.01703 2.88582 2.72221 2.80392 2.34876 2.70237C2.12928 2.89892 1.85739 3.14461 1.60188 3.37391C2.2767 4.54993 2.90237 5.64078 3.54443 6.76439C3.20702 7.01007 2.94169 7.20334 2.67634 7.39662C2.82048 7.68489 2.96461 7.97316 3.09892 8.2385C2.95806 8.5104 2.84013 8.7397 2.72548 8.96246C3.03668 9.50624 3.29875 9.99434 3.59685 10.4595C3.86874 10.8854 4.04236 11.3997 4.50752 11.7436C4.72045 11.2457 4.63201 10.8723 4.35356 10.5742C3.50512 9.67659 3.57719 8.60539 3.67219 7.08214C4.52063 8.49402 5.7163 9.2278 5.73923 10.7183C5.74251 10.905 5.90957 11.1114 6.04716 11.2719C6.2175 11.4717 6.4337 11.6322 6.6237 11.8059C6.52215 12.0745 6.44681 12.2645 6.35181 12.5167C6.68594 12.841 7.03645 13.1915 7.39679 13.529C8.79557 14.8295 9.81435 16.4018 10.7119 18.0692C10.8986 18.4132 10.8724 18.6916 10.7348 18.9209C11.3474 20.0151 11.9371 21.0666 12.5431 22.1476C12.8117 22.2262 13.1164 22.3114 13.4407 22.4064C13.6274 22.9633 13.7781 23.494 13.9812 24.005C14.1188 24.3555 13.7584 24.4538 13.6962 24.6929C14.941 25.2072 15.0655 25.3284 15.5503 26.547C15.6519 26.8026 15.737 27.0679 15.832 27.3267C15.9958 27.7657 15.9729 28.1948 15.7763 28.6174C15.1277 30.0292 14.4169 31.3985 13.3227 32.5385C12.7102 33.174 12.1598 33.875 11.6455 34.5925C10.0633 36.7971 8.49092 39.0083 6.95456 41.2456C5.88992 42.7951 4.89079 44.3937 3.87202 45.9759C3.80322 46.084 3.8065 46.238 3.77047 46.3919C4.55011 46.3461 4.64511 46.3199 4.84493 46.0349C5.25441 45.4452 5.64423 44.8425 6.06681 44.2626C6.14216 44.1611 6.24698 43.8237 6.52543 44.1251C5.41493 45.8482 4.30442 47.568 3.1972 49.2845C3.10875 49.4253 3.03013 49.5924 2.90237 49.6841C2.19152 50.1788 1.86394 50.9617 1.40205 51.6464C1.13343 52.046 0.841884 52.4293 0.556888 52.8191C0.491372 52.8453 0.429131 52.8682 0.379993 52.8912C0.36689 52.8977 0.360339 52.901 0.347236 52.9043C0.307926 52.9206 0.271894 52.937 0.239136 52.9534C0.232584 52.9567 0.226031 52.9632 0.219479 52.9665C0.189997 52.9829 0.160515 52.9993 0.14086 53.0189L0.137584 53.0222C0.00655103 53.1369 0.00327582 53.2941 0 53.7003C0.458614 53.8248 0.923778 53.9525 1.63791 54.1491C1.2317 54.3686 1.0155 54.4832 0.7993 54.5979C2.56497 54.6896 4.21925 54.9484 5.86044 54.6601C7.71128 54.3325 9.54901 53.946 11.3966 53.6151C11.9829 53.5103 12.589 53.5005 13.3621 53.4317C14.692 52.806 15.4651 51.8331 16.1793 50.3229C16.3431 49.9757 16.5593 49.6514 16.7689 49.3271C17.3389 48.4426 17.9187 47.5647 18.492 46.6835C20.2413 43.9908 21.9873 41.2948 23.7366 38.6021C23.9462 38.2777 24.1133 37.8945 24.3983 37.6521C24.9978 37.1476 25.5874 36.4924 26.4358 36.8921C26.8715 37.4784 27.2384 38.0124 27.6479 38.5136C28.7355 39.8501 29.7182 41.2391 30.2358 42.913C30.5437 43.9187 30.8713 44.9178 31.2316 45.9071C31.3397 46.1987 31.533 46.6049 31.7754 46.6802C33.1185 47.0995 33.7442 48.138 34.3175 49.3729C34.1013 49.3729 33.9473 49.3893 33.7966 49.3697C33.6066 49.3467 33.4756 49.0519 33.2299 49.2517C33.0497 49.6907 33.3249 49.9822 33.5706 50.2771C33.8883 50.6571 34.2519 51.0043 34.5435 51.4039C35.3952 52.5636 36.2207 53.7396 37.0528 54.9156C37.2034 55.1318 37.3279 55.3677 37.4852 55.6265C37.1772 55.7542 36.9447 55.8492 36.5843 55.9999C37.1903 56.2521 37.6948 56.4684 38.2026 56.6649C38.2714 56.6911 38.3795 56.6125 38.4712 56.5797C38.612 56.2325 38.5171 55.9639 38.2615 55.6887C37.9634 55.3677 37.685 55.0204 37.4688 54.647C37.3836 54.5029 37.4098 54.1622 37.5245 54.0574C37.7865 53.8084 38.0781 53.6642 38.2648 53.2744C38.4548 52.8813 39.0674 53.0582 39.4998 53.0517C40.2762 53.0386 41.0493 53.0484 41.8256 53.0484C44.0958 53.0484 46.3692 53.0517 48.6393 53.0419C48.9538 53.0419 49.324 53.1172 49.5402 52.6193C49.301 52.0951 49.0357 51.512 48.7343 50.8503C48.9669 50.6505 49.17 50.4802 49.3895 50.2902C49.2748 49.7791 49.1405 49.3107 48.5673 48.9995C48.1021 48.7472 47.7254 48.2985 47.3716 47.8792C46.5821 46.939 46.0056 45.8678 45.5404 44.7344C45.2292 43.9678 44.8951 43.2078 44.5413 42.4609C44.4594 42.2906 44.2792 42.0646 44.0008 42.3496C44.1908 43.0801 44.8459 43.7025 44.6854 44.6099C44.5347 44.492 44.4233 44.4396 44.3644 44.3511C44.0597 43.8892 43.7682 43.4208 43.4701 42.9523C43.2015 42.533 42.9296 42.1137 42.661 41.6944C42.3596 41.2293 42.0615 40.7641 41.7568 40.3022C41.4522 39.8403 41.1148 39.3981 40.8396 38.9198C40.5939 38.4972 40.2107 38.0157 40.2532 37.5931C40.3286 36.7971 39.4703 37.01 39.3131 36.4826C39.1231 35.8536 38.7889 35.264 38.481 34.6776C38.3303 34.3926 38.1502 34.065 37.8914 33.9111C37.0495 33.4066 36.7743 32.5942 36.4926 31.7294C36.8005 31.2085 37.2559 30.7368 37.056 30.0653C36.3386 29.9703 36.3943 30.7925 35.9652 31.0185C35.1135 30.478 34.9923 29.5313 34.573 28.7779C34.478 28.6108 34.6057 28.1456 34.7728 28.0375C35.3068 27.6969 35.1954 27.0351 35.595 26.6355C36.0242 26.2063 36.3812 25.7084 36.7645 25.2334C37.1478 24.7617 37.4852 24.254 38.1731 24.159C38.3631 24.1328 38.5596 23.9461 38.6939 23.7855C39.6865 22.5931 40.6627 21.3942 41.6389 20.1887C41.7667 20.0282 41.8977 19.8447 41.6029 19.658C40.987 20.3656 40.3712 21.0764 39.7553 21.7873C38.409 23.3367 38.409 23.3367 37.5376 23.6578C37.6522 23.399 37.7145 23.2024 37.8193 23.0255C38.5072 21.8888 39.1722 20.7357 39.8994 19.6252C41.7241 16.8441 43.6077 14.112 45.8549 11.6421C46.2513 11.2064 46.4969 10.6298 46.795 10.1057C46.8311 10.0435 46.7623 9.87969 46.6935 9.81417C46.6509 9.77486 46.4871 9.79779 46.4282 9.8502C46.3102 9.9583 46.2152 10.0959 46.1399 10.2335C45.8287 10.7936 45.4782 11.3243 44.9999 11.7731C44.764 11.4783 44.954 11.3047 45.0654 11.131C45.5437 10.3842 46.0547 9.66021 46.5035 8.89695C46.8442 8.31385 47.198 7.78644 47.8466 7.49162C48.3216 7.27541 48.6655 6.85938 48.7442 6.35491C48.8948 5.40165 49.3666 4.58596 49.704 3.71132C49.799 3.46564 49.9169 3.19047 49.5762 2.86617C49.1667 2.82686 48.6786 2.81702 48.1905 2.77771Z" fill="#EEEEEE" />
  <path d="M27.71 13.9614C26.3309 15.2193 26.0361 15.6419 25.9902 16.4379C26.878 15.8516 27.3497 15.1735 27.71 13.9614Z" fill="#EEEEEE" />
  <path d="M266.071 20.372C266.432 20.0771 266.72 19.8085 266.704 19.3303C265.855 19.2189 265.806 19.2909 266.071 20.372Z" fill="#EEEEEE" />
  <path d="M196.67 41.0165C196.333 39.8306 196.316 38.6186 196.307 37.4065C196.287 34.4255 196.297 31.4445 196.294 28.4635C196.294 27.602 196.294 26.7404 196.294 25.8789C196.251 25.8789 196.212 25.8789 196.169 25.8789C196.169 26.1541 196.169 26.4292 196.169 26.7011C196.149 30.8975 196.133 35.0905 196.113 39.2868C196.11 40.2139 196.251 41.1082 196.615 41.973C196.683 41.652 196.755 41.3113 196.67 41.0165Z" fill="#EEEEEE" />
  <path d="M288.983 36.2305C288.753 34.3404 288.275 32.5911 287.597 30.8877C287.469 30.5699 287.633 30.1342 287.148 29.9966C286.929 29.1941 286.005 28.9877 285.684 28.2637C285.432 27.697 285.121 27.1893 284.41 27.0779C284.22 27.0484 284.069 26.8093 283.886 26.6914C283.099 26.1803 282.349 25.5907 281.514 25.1845C279.876 24.395 278.186 23.7071 276.515 22.9831C276.423 22.9438 276.289 22.9209 276.207 22.9602C275.856 23.1142 275.542 22.993 275.26 22.8226C274.379 22.2919 273.426 22.1216 272.41 22.0823C271.696 22.0561 270.989 21.8792 270.281 21.7612C270.071 21.7252 269.819 21.5549 269.665 21.6237C269.089 21.8792 268.578 21.5647 268.037 21.5221C267.487 21.4795 266.828 21.5614 266.422 21.2863C265.888 20.9226 265.318 21.3223 264.856 20.9816C264.729 20.8866 264.578 20.8244 264.437 20.7457C264.525 20.5951 264.679 20.4444 264.66 20.3232C264.643 20.2216 264.427 20.0808 264.296 20.0808C263.969 20.0775 263.641 20.179 263.317 20.1692C262.943 20.1594 262.567 19.6287 262.773 19.3437C263.186 18.7803 263.015 18.2791 262.717 17.8172C262.455 17.4044 262.413 16.9982 262.472 16.5527C262.517 16.1858 262.717 15.9237 263.097 15.9008C264.64 15.796 266.17 15.4684 267.729 15.6125C267.808 15.6191 267.88 15.6977 267.978 15.76C267.782 15.9925 267.601 16.2022 267.385 16.4577C267.595 16.4806 267.726 16.5363 267.801 16.497C268.987 15.855 270.229 15.8255 271.509 16.1301C271.889 16.2218 272.25 16.1989 272.64 16.0646C274.032 15.5929 275.254 15.8681 276.214 17.0441C276.354 17.2144 276.528 17.3618 276.643 17.5485C276.711 17.6599 276.695 17.8237 276.734 18.0628C275.578 17.9449 274.733 17.2799 273.793 16.9032C273.38 17.0637 272.987 17.2144 272.564 17.3782C273.842 17.7287 275.044 18.0072 276.181 18.6721C277.229 19.2847 278.261 20.0414 279.525 20.2249C279.794 20.6737 280.082 21.1094 280.315 21.5745C280.574 22.0888 280.78 22.6326 281.009 23.1699C281.655 22.8292 281.248 22.1707 281.599 21.8006C281.805 21.6663 282.162 21.984 282.28 21.5778C282.117 21.0242 281.625 20.5951 281.579 19.8547C281.891 19.9071 282.097 19.9268 282.297 19.9759C282.939 20.1332 283.571 20.369 284.223 20.4509C284.875 20.5328 285.573 20.5754 286.202 20.428C286.634 20.3264 286.981 19.8678 287.364 19.5665C287.45 19.5009 287.522 19.419 287.653 19.2946C286.735 18.9539 285.903 18.7213 284.924 19.0259C284.324 19.2127 283.614 19.0947 282.958 19.039C282.483 18.9965 282.022 18.8261 281.38 18.6689C282.241 18.5477 282.886 18.6427 283.538 18.8032C283.846 18.8785 284.19 18.7934 284.518 18.7835C284.878 17.9646 285.622 18.2987 286.211 18.2561C287.371 18.171 288.537 18.171 289.697 18.112C289.949 18.0989 290.267 18.1251 290.395 17.6632C289.651 17.5682 288.924 17.4765 288.229 17.388C287.813 16.4577 287.794 15.5765 287.984 14.6986C288.19 13.7453 288.115 12.8052 288.026 11.7078C287.702 12.4514 288.154 13.1655 287.666 13.7289C286.749 12.8183 285.687 10.8855 285.507 9.7521C285.442 9.32952 285.409 8.91021 285.016 8.68418C284.858 8.86435 284.757 8.97901 284.646 9.10349C283.948 8.39264 283.299 7.7342 282.611 7.03973C282.89 7.05611 283.142 7.07248 283.391 7.08886C283.564 6.77766 283.738 6.46319 283.925 6.13233C281.855 4.10787 279.358 2.9384 276.856 1.62152C276.79 1.86393 276.679 2.05393 276.731 2.126C276.908 2.36841 277.144 2.56824 277.553 2.98426C276.705 2.79427 276.102 2.71238 275.539 2.5191C274.045 2.00808 272.509 1.87704 270.953 1.92945C269.515 1.97531 268.08 2.09979 266.642 2.14238C264.539 2.20462 262.432 2.23738 260.329 2.25048C259.435 2.25704 258.577 2.36186 257.741 2.70255C258.039 3.18409 258.645 2.65013 258.904 3.08909C258.278 3.43633 257.669 3.8196 257.021 4.12097C256.415 4.40269 255.9 5.11354 255.071 4.61889C254.99 4.56976 254.764 4.70079 254.636 4.79251C254.279 5.05458 253.882 5.29045 253.601 5.6213C252.022 7.48852 250.161 9.05435 248.343 10.6628C248.261 10.7348 248.176 10.8233 248.14 10.9216C248.117 10.9838 248.176 11.0788 248.202 11.1673C248.507 10.9936 248.811 10.8233 249.263 10.5645C248.851 11.6619 248.474 12.5693 248.166 13.4964C247.796 14.6232 247.223 15.5601 246.037 16.1203C246.011 15.665 245.981 15.2358 245.968 14.8067C245.958 14.4201 245.994 14.0303 245.965 13.6438C245.935 13.2671 246.138 12.8281 245.719 12.5365C245.388 12.9395 245.775 13.67 245.077 13.932C244.962 13.0312 244.861 12.1533 244.74 11.2754C244.579 10.1026 244.572 10.1026 245.483 9.15263C245.441 6.76784 245.401 4.40269 245.359 1.9491C244.972 2.10634 244.645 2.24393 244.389 2.34876C243.717 1.98514 244.065 1.54618 244.061 1.13343C244.058 0.73378 243.822 0.340685 243.708 0C242.374 0 241.162 0 239.947 0C240.268 0.131033 240.589 0.163784 240.913 0.176887C241.3 0.196542 241.69 0.176895 242.076 0.216205C242.338 0.242412 242.672 0.0917185 242.869 0.435679C239.796 1.3267 236.691 1.74928 233.513 1.59532C233.435 1.77877 233.372 1.9229 233.277 2.13583C232.19 2.25703 231.056 2.16859 229.762 2.04411C230.427 2.71237 231.037 2.99409 231.813 2.96133C232.35 2.9384 232.894 3.00064 233.477 3.02685C233.526 3.3315 233.589 3.53788 233.589 3.74754C233.595 6.46319 233.598 9.17884 233.592 11.8945C233.592 12.1697 233.615 12.4776 233.503 12.7102C233.343 13.0476 233.11 13.3719 232.835 13.6241C232.537 13.9026 232.144 13.9484 231.728 13.7257C231.233 12.874 230.919 11.9535 230.902 10.9281C230.896 10.4924 230.791 10.0535 230.69 9.62762C230.591 9.21487 230.46 9.19522 229.753 9.48021C229.894 10.0076 229.972 10.5645 230.188 11.0657C230.69 12.2286 230.653 13.4374 230.634 14.6593C230.627 15.1408 230.447 15.5044 230.087 15.8124C228.989 16.746 227.912 17.6992 226.811 18.6296C226.601 18.8065 226.356 18.9506 226.103 19.0587C225.474 19.3339 224.944 19.2094 224.459 18.6918C224.233 18.4494 224.033 18.1841 223.827 17.922C222.841 16.6542 221.855 15.3832 220.872 14.1122C220.194 13.2376 219.519 12.3597 218.854 11.4752C218.811 11.4195 218.847 11.3016 218.847 11.2164C219.044 11.1673 219.316 11.3179 219.368 10.8692C218.599 9.57521 217.786 8.20264 216.967 6.83335C216.947 6.79732 216.869 6.79732 216.816 6.77767C216.309 7.14783 217.065 7.60317 216.741 8.14368C215.509 6.17819 213.813 4.81545 212.332 3.24634C211.788 2.66979 211.195 2.45359 210.425 2.45686C206.77 2.47979 203.114 2.47323 199.455 2.46996C198.95 2.46996 198.485 2.5191 198.049 2.8303C197.44 3.26598 196.723 3.34133 195.989 3.31185C195.579 3.29547 195.17 3.30857 194.76 3.30857C194.76 3.35443 194.76 3.40029 194.76 3.44616C196.136 3.48874 197.512 3.53133 198.839 3.57064C199.016 3.76064 199.137 3.87529 199.235 4.00305C205.164 11.6717 211.094 19.3437 217.02 27.0124C217.088 27.1008 217.144 27.1958 217.203 27.2876C217.229 27.3334 217.252 27.3858 217.262 27.4382C217.275 27.4906 217.272 27.5496 217.278 27.602C216.813 28.7617 216.813 28.7617 217.216 29.1449C217.429 28.8632 217.642 28.5848 217.914 28.231C218.186 28.5553 218.379 28.7879 218.582 29.0336C218.34 29.2465 218.15 29.3677 218.015 29.5348C216.833 30.9958 215.66 32.4666 214.481 33.9276C214.274 34.1864 214.088 34.5206 213.809 34.6516C212.961 35.0545 212.483 35.8112 211.919 36.4828C210.746 37.8848 209.642 39.3426 208.45 40.7282C207.077 42.3235 205.656 43.873 204.224 45.4159C203.703 45.9761 203.186 46.5395 202.432 46.8606C201.928 47.0768 201.568 47.5812 201.561 48.1741C201.554 49.1012 200.811 49.455 200.267 49.9693C200.211 50.0217 200.048 50.0184 199.959 49.9758C199.232 49.6384 198.659 50.2543 197.961 50.1822C198.059 50.4902 198.125 50.6965 198.22 50.9881C197.931 51.1191 197.653 51.3452 197.365 51.3615C196.372 51.4238 195.373 51.4238 194.377 51.427C194.171 51.427 193.961 51.3452 193.751 51.2993C193.709 49.5893 193.67 47.9383 193.624 46.2906C193.509 42.3596 193.715 38.4319 193.65 34.5009C193.552 28.4079 193.624 22.3083 193.627 16.212C193.627 15.8811 193.552 15.4717 193.712 15.2358C194.154 14.5938 193.984 13.9877 193.823 13.3326C193.706 12.8543 193.66 12.3466 193.653 11.8519C193.63 9.41469 193.624 6.97421 193.63 4.537C193.63 4.11442 193.778 3.69184 193.781 3.26926C193.787 2.59444 193.758 2.61738 194.305 2.69272C195.016 2.791 195.73 2.84996 196.447 2.89254C196.657 2.90565 196.873 2.81392 197.086 2.77134C195.419 2.45358 193.774 2.27996 192.123 2.23738C189.853 2.17841 187.58 2.27996 185.31 2.19479C183.911 2.14238 182.784 2.65668 181.572 3.40029C181.791 3.58374 181.916 3.69839 182.05 3.79011C182.61 4.17993 182.8 4.72045 182.735 5.37889C182.715 5.59837 182.732 5.82112 182.732 6.04388C182.728 13.6929 182.728 21.3387 182.722 28.9877C182.722 29.4299 182.722 29.8755 182.682 30.3144C182.669 30.452 182.545 30.6682 182.44 30.6878C182.247 30.7271 181.896 30.7173 181.841 30.6092C181.497 29.9475 180.684 29.6199 180.625 28.7289C180.599 28.3391 180.203 27.9722 179.944 27.5431C179.819 27.851 179.721 28.0901 179.587 28.4144C178.267 26.6291 176.979 24.8995 175.708 23.1567C175.554 22.9438 175.39 22.6261 175.44 22.4033C175.564 21.8628 175.246 21.5778 174.952 21.2535C174.316 20.5557 173.648 19.8907 173.052 19.1635C172.108 18.0072 171.079 16.9065 170.467 15.5143C170.31 15.1605 170.139 14.8067 170.038 14.4365C169.903 13.955 169.37 14.1351 169.15 13.8502C168.61 13.1491 168.02 12.4678 167.587 11.7012C166.936 10.5416 166.189 9.46383 165.33 8.4516C164.659 7.65886 164.331 6.75145 164.57 5.52302C165.193 6.30922 165.203 5.19544 165.632 5.31664C166.061 5.43785 166.231 5.37888 166.14 4.87441C166.035 4.29459 166.346 4.00632 166.821 4.24546C167.171 4.41907 167.486 4.632 167.892 4.56321C168.085 4.53045 168.344 4.55011 168.347 4.23891C168.269 4.16684 168.2 4.04235 168.118 4.0358C167.08 3.91787 166.025 4.01615 165.009 3.61977C164.652 3.48219 164.279 3.7246 164.007 4.05218C163.532 4.62218 163.414 4.66476 163.093 4.31098C162.582 3.75081 162.123 3.14478 161.632 2.54203C161.537 2.54203 161.413 2.506 161.324 2.54858C160.341 3.01048 159.411 3.00064 158.517 2.31599C158.084 1.98514 157.573 1.94256 157.108 2.2079C156.587 2.50272 156.076 2.49289 155.51 2.40772C154.582 2.27013 153.642 2.18169 152.705 2.126C152.273 2.0998 151.785 2.10635 151.408 2.27997C150.927 2.49945 150.468 2.52565 149.964 2.51255C149.518 2.50272 149.341 2.7222 149.256 3.25288C149.223 3.44943 149.41 3.68529 149.109 3.87529C148.784 4.09477 148.165 3.69511 147.887 4.252C148.155 4.58941 148.296 4.26184 148.473 4.24873C148.735 4.22908 149.004 4.24218 149.374 4.24218C149.407 4.81544 149.436 5.35268 149.466 5.88991C149.263 5.95543 149.122 6.00129 148.981 6.04715C148.971 6.15526 148.928 6.26991 148.951 6.37146C149.649 9.54572 149.679 12.7298 149.22 15.9401C149.05 17.1424 149.037 18.3675 148.958 19.5796C148.912 20.297 148.958 21.034 148.82 21.7318C148.496 23.3795 148.558 25.0371 148.552 26.6979C148.548 27.3137 148.634 27.8903 148.879 28.4701C149.066 28.9124 149.128 29.4299 149.141 29.918C149.21 32.1882 149.158 34.4649 149.312 36.7284C149.593 40.8822 149.515 45.0359 149.489 49.1929C149.485 49.7957 149.574 50.4083 149.246 50.9815C149.154 51.142 149.19 51.4139 149.243 51.6138C149.354 52.0331 149.512 52.4425 149.649 52.8422C149.751 52.911 149.833 52.9962 149.931 53.0256C150.252 53.1206 150.596 53.1993 150.707 53.5662C150.819 53.9265 150.609 54.1918 150.376 54.4441C150.337 54.4867 150.396 54.6177 150.419 54.7684C151.877 54.7323 153.39 55.0403 154.599 53.8675C154.121 53.6382 153.655 53.8937 153.171 53.9658C152.689 54.0379 152.194 54.2115 151.71 53.9461C151.683 53.4056 151.959 53.0912 152.463 53.0617C153.292 53.0125 154.124 53.0387 154.953 53.006C155.958 52.9667 156.938 53.0355 157.852 53.5268C158.084 53.6513 158.405 53.7856 158.628 53.7201C159.519 53.458 160.502 53.5105 161.399 52.9339C161.056 52.6653 160.767 52.436 160.423 52.1641C160.41 51.9315 160.381 51.6564 160.381 51.3845C160.377 47.5059 160.371 43.6273 160.384 39.7455C160.387 39.0838 160.404 38.4024 160.554 37.7636C160.892 36.3255 160.816 34.9038 160.594 33.4723C160.492 32.8171 160.404 32.1554 160.318 31.497C160.132 30.0589 160.194 28.6241 160.404 27.1958C160.417 27.1041 160.531 27.0288 160.617 26.9239C161.393 27.3039 161.698 28.0049 161.802 28.7879C161.95 29.8853 162.058 30.9892 162.13 32.0932C162.205 33.2332 162.215 34.3764 162.254 35.5197C162.425 35.025 162.412 34.5304 162.428 34.039C162.448 33.374 162.346 32.6632 162.549 32.0571C162.831 31.212 162.762 30.4454 162.533 29.633C162.281 28.7289 162.048 27.8215 161.845 26.9043C161.783 26.616 161.848 26.3015 161.855 25.8888C162.094 26.0821 162.245 26.1639 162.34 26.2884C163.634 28.0181 164.937 29.7411 166.199 31.497C167.135 32.8008 167.909 34.2356 168.947 35.4509C170.061 36.7547 170.506 38.3631 171.309 39.8012C171.391 39.9453 171.476 40.0862 171.561 40.2303C171.722 40.1386 171.879 40.0468 172.033 39.9617C173.89 42.163 175.033 43.8042 175.633 45.1145C175.564 45.3176 175.499 45.5109 175.427 45.7271C176.658 46.6345 177.487 47.8007 178.214 49.0553C178.66 49.8219 179.174 50.5458 179.656 51.2895C180.212 52.151 181.008 52.7439 181.89 53.232C182.021 53.3041 182.286 53.3762 182.329 53.3205C182.692 52.8651 183.144 53.2648 183.551 53.1796C184.795 52.9241 186.063 52.8225 187.311 53.2648C187.442 53.3106 187.652 53.3303 187.747 53.2582C188.242 52.8717 188.802 53.0093 189.349 53.0093C190.672 53.0125 191.999 53.16 193.283 52.9503C194.433 51.6236 194.698 51.5253 195.969 51.9938C196.087 52.0364 196.162 52.2001 196.336 52.3934C195.871 52.5736 195.494 52.721 195.18 52.8422C195.324 53.3139 195.442 53.6972 195.579 54.1427C196.231 53.6972 196.903 53.7529 197.568 53.7529C200.116 53.7496 202.665 53.7496 205.214 53.743C206.262 53.7398 207.317 53.8086 208.329 53.422C208.522 53.3467 208.768 53.3827 208.984 53.4024C209.072 53.4089 209.154 53.5105 209.236 53.5694C209.403 53.838 208.683 54.1099 209.298 54.4113C209.882 53.743 210.576 53.2222 211.257 53.2812C212.07 53.612 212.614 53.9953 213.177 54.0313C214.556 54.1198 215.945 54.0608 217.327 54.0182C217.517 54.0117 217.701 53.7824 217.884 53.6546C217.38 53.5432 216.961 53.6382 216.535 53.6808C216.04 53.7299 215.539 53.7463 215.041 53.743C214.648 53.743 214.225 53.8282 213.734 53.5268C214.448 52.9962 215.054 52.7046 215.824 52.97C216.466 53.1894 217.105 53.3139 217.694 52.8324C217.773 52.8324 217.858 52.8225 217.94 52.8193C218.022 52.816 218.101 52.8193 218.169 52.8487C218.779 53.101 218.89 53.0781 218.821 52.5998C218.779 52.305 218.828 51.9315 218.422 51.7055C218.307 51.7219 218.186 51.7251 218.065 51.7251C217.694 51.7284 217.301 51.7219 217 52.1051C216.705 52.0429 216.41 51.9807 215.968 51.8857C216.364 51.4795 216.626 51.1191 216.974 50.8734C217.347 50.6081 217.799 50.4508 218.255 50.2281C217.92 49.9071 217.832 49.5762 218.127 49.3109C218.49 48.9866 218.906 48.7147 219.326 48.469C219.627 48.2921 220.01 48.2495 220.253 47.9383C220.073 47.7974 219.945 47.6992 219.775 47.5649C219.991 47.3257 220.191 47.0735 220.423 46.8573C221.314 46.0351 222.238 45.2521 223.099 44.407C223.607 43.9058 224.148 43.6241 224.934 43.8009C224.469 43.2539 224.652 42.6675 224.524 42.1499C225.157 41.4129 225.714 40.6038 226.549 39.8995C226.65 40.2794 226.68 40.5546 226.795 40.7937C227.089 41.4129 226.945 41.9534 226.608 42.5037C226.352 42.9197 226.166 43.3751 225.949 43.814C225.828 44.0466 225.707 44.2759 225.586 44.5085C225.334 44.4397 225.081 44.3677 224.875 44.312C224.619 44.8918 224.403 45.3995 224.171 45.8975C223.892 46.4969 223.548 47.0735 223.332 47.6959C222.972 48.7179 222.428 49.586 221.55 50.2379C221.74 50.3493 221.917 50.4574 222.045 50.5327C222.13 51.2469 221.661 51.8267 221.733 52.5638C221.973 52.472 222.172 52.4589 222.248 52.3541C223.299 50.9324 224.495 49.6188 225.324 48.0333C225.913 46.9097 226.595 45.8287 227.256 44.7411C227.381 44.5347 227.532 44.2661 227.921 44.4004C227.889 44.9409 227.866 45.4913 227.813 46.0351C227.787 46.3069 227.636 46.5788 227.656 46.8409C227.676 47.0964 227.853 47.3323 227.938 47.5878C228.003 47.7811 228.036 47.9874 228.174 48.5607C228.505 46.7557 228.701 45.3373 228.567 43.9025C228.514 43.3227 228.593 42.8116 228.93 42.3301C229.631 41.3343 230.306 40.322 231.011 39.3262C231.122 39.1657 231.322 39.0707 231.571 38.8741C231.643 39.3622 231.698 39.7324 231.754 40.1026C231.862 38.861 231.813 37.5703 233.199 36.8562C233.618 37.4983 233.576 38.2255 233.576 38.9364C233.585 42.2056 233.589 45.4716 233.585 48.7409C233.585 49.0652 233.523 49.3895 233.49 49.7236C232.891 49.9529 232.344 50.1855 231.777 50.3689C231.122 50.5786 230.807 50.369 230.464 49.5336C230.352 49.7891 230.267 50.0283 230.142 50.2445C230.103 50.3133 229.949 50.3526 229.854 50.3395C229.762 50.3264 229.618 50.2412 229.605 50.1691C229.536 49.7302 229.497 49.2879 229.451 48.8817C229.376 49.3404 229.422 49.9038 229.183 50.2871C228.858 50.8046 229.356 51.0864 229.33 51.4991C229.304 51.9315 229.176 52.4032 229.612 53.1501C229.612 52.2132 229.612 51.6236 229.612 50.9979C229.982 51.0143 230.3 51.1257 230.493 51.0208C231.341 50.5524 232.21 50.762 233.078 50.8538C233.173 50.8636 233.258 50.9684 233.382 51.0503C233.523 51.4696 233.677 51.9184 233.841 52.4065C235.629 52.4065 237.343 52.4032 239.059 52.4065C240.052 52.4098 241.038 52.4098 242.017 52.6948C242.584 52.8586 243.226 52.8062 243.832 52.7996C244.455 52.7898 245.025 52.5998 245.486 52.0527C245.441 51.7514 245.355 51.4303 245.352 51.1093C245.329 48.8391 245.336 46.569 245.3 44.2989C245.293 43.8009 245.568 43.4897 245.798 43.172C245.719 42.6511 245.509 42.1335 245.604 41.6815C245.778 40.8625 245.791 40.0403 245.896 39.2214C245.922 39.0052 246.158 38.8119 246.381 38.4876C246.656 39.7389 246.859 40.8232 247.144 41.8879C247.272 42.3629 247.069 42.7297 246.951 43.1818C247.753 44.1383 248.618 45.0752 249.375 46.094C250.587 47.7188 252.071 49.0161 253.784 50.0741C254.148 50.2969 254.465 50.5917 254.98 50.9881C254.292 51.0634 253.83 51.1158 253.116 51.1945C253.545 51.4533 253.755 51.6334 253.997 51.712C254.783 51.9708 255.582 52.1903 256.378 52.4262C258.596 53.0912 260.906 53.4482 263.051 54.372C263.402 54.5227 263.798 54.6275 264.178 54.6439C266 54.7127 267.824 54.8732 269.639 54.5522C271.162 54.2836 272.682 54.0018 274.202 53.7136C274.965 53.5694 275.693 53.3205 276.384 52.947C279.054 51.5057 281.73 50.0807 284.354 48.6786C284.37 48.4035 284.315 48.1578 284.41 48.0104C284.619 47.6893 284.908 47.4207 285.163 47.1292C287.469 44.4921 288.74 41.4391 288.852 37.9208C288.861 37.6064 288.97 37.2919 289.035 36.9643C289.638 36.8759 290.165 36.8005 290.693 36.7252C290.693 36.6662 290.696 36.6105 290.696 36.5516C290.165 36.4631 289.602 36.3517 288.983 36.2305ZM276.725 39.7684C276.282 40.0894 275.761 40.2991 275.267 40.5415C274.815 40.7643 274.425 40.725 274.133 40.2467C273.862 39.8012 273.577 40.191 273.265 40.2729C273.265 40.4793 273.265 40.6889 273.265 40.9149C273.206 40.9674 273.134 41.082 273.049 41.0951C270.468 41.4817 267.864 41.521 265.266 41.4227C263.49 41.3539 261.787 40.8396 260.139 40.1681C259.884 40.0632 259.641 39.9256 259.412 39.7782C258.613 39.2574 258.154 38.5596 258.288 37.554C258.354 37.0724 258.377 36.5876 258.423 36.034C258.102 35.9554 257.843 35.8866 257.581 35.8309C257.096 35.726 256.578 35.7064 256.136 35.5131C254.793 34.9235 253.43 35.084 252.077 35.3592C251.062 35.5688 250.145 35.5917 249.224 34.9726C248.667 34.5959 247.93 34.5402 247.403 35.1102C246.938 35.6114 246.446 35.5099 245.893 35.4116C245.952 35.2118 245.994 35.0611 246.05 34.8678C245.834 34.8678 245.631 34.8678 245.457 34.8678C245.077 35.4378 245.339 35.9783 245.339 36.5286C245.732 36.3976 246.066 36.2862 246.531 36.129C246.531 36.4467 246.531 36.6466 246.531 36.8398C246.305 36.7416 246.096 36.8071 246.053 37.0331C245.85 38.0781 245.683 39.1296 245.49 40.2663C245.031 39.7684 245.368 39.2115 245.1 38.8053C244.805 39.9879 245.467 41.1901 245.113 42.3956C244.959 42.3596 244.795 42.3629 244.772 42.3072C244.694 42.1073 244.622 41.8911 244.622 41.6815C244.615 39.3556 244.622 37.0298 244.631 34.704C244.631 34.5992 244.687 34.4943 244.717 34.3928C244.749 34.3469 244.779 34.265 244.815 34.2618C245.637 34.1831 245.925 33.6623 245.952 32.9121C246.011 31.1432 246.076 29.3742 246.145 27.6053C246.171 26.9534 246.024 26.272 246.476 25.6824C246.558 25.5743 246.581 25.3384 246.522 25.214C246.047 24.2247 246.41 23.16 246.214 22.1347C246.083 21.4599 246.282 20.7195 246.332 20.0414C246.771 19.9235 246.928 20.1561 247.085 20.3821C247.442 20.8932 247.635 21.473 247.662 22.0888C247.678 22.4557 247.504 22.8619 247.609 23.1928C247.773 23.7104 248.042 24.2181 248.366 24.6538C249.014 25.5317 249.624 26.4489 250.469 27.1696C250.973 27.5987 251.419 28.0967 251.917 28.5389C253.375 29.8394 255.032 30.8189 256.801 31.6378C257.597 32.0047 258.468 32.2177 259.176 32.7942C259.409 32.9842 259.798 32.994 260.119 33.0563C260.929 33.2168 261.741 33.3839 262.557 33.5083C264.083 33.7475 265.62 33.9407 267.146 34.1832C269.272 34.5206 271.424 34.7269 273.495 35.3559C274.11 35.5426 274.825 35.5262 275.273 36.1355C275.336 36.2174 275.581 36.1421 275.722 36.1912C276.076 36.319 276.469 36.4173 276.761 36.6367C278.028 37.5965 278.019 38.8283 276.725 39.7684Z" fill="#EEEEEE" />
  <path d="M266.845 16.8445C266.036 17.1917 265.22 17.5128 264.342 17.6405C264.28 17.6503 264.24 17.824 264.165 17.9714C264.466 18.0762 264.758 18.1778 265.053 18.2793C265.122 18.5348 265.184 18.7772 265.249 19.0196C265.711 18.9541 265.751 18.6069 265.829 18.2826C265.918 17.9288 266.163 17.7093 266.488 17.5914C266.786 17.4833 267.094 17.4112 267.385 17.3293C267.362 16.8805 267.159 16.7102 266.845 16.8445Z" fill="#EEEEEE" />
  <path d="M94.6845 12.4908C94.6911 12.3892 94.6354 12.2811 94.5994 12.1501C94.429 12.4056 94.2718 12.6448 94.0294 13.0116C93.6952 12.4973 93.4364 12.0944 93.1744 11.6915C92.873 11.2296 92.5815 10.7579 92.2572 10.3091C91.9656 9.90617 91.6511 9.51635 91.317 9.14945C90.9468 8.73998 90.5603 8.3436 90.1541 7.96688C89.7905 7.62947 89.3843 7.33464 89.0108 7.00379C88.6341 6.67293 88.1296 6.48621 87.8053 6.04398C88.3753 5.75243 88.7979 6.51242 89.3417 6.00467C88.906 5.8245 88.5096 5.6345 88.0969 5.50019C86.9929 5.14312 85.8791 4.82209 84.7785 4.46503C84.523 4.38313 84.1954 4.33727 84.0578 3.91469C84.975 3.91469 85.8038 3.91469 86.6326 3.91469C87.4646 3.91469 88.2934 3.91469 89.1255 3.91469C90.0099 3.91469 90.8977 3.93108 91.7822 3.91143C92.5913 3.89505 93.4102 4.03263 94.3438 3.79349C93.7673 3.26936 93.1744 2.99747 92.6044 3.27264C91.9558 3.58712 91.317 3.54125 90.6618 3.54453C88.1133 3.55435 85.5679 3.55108 83.0193 3.53798C82.3544 3.5347 81.6763 3.56746 81.0342 3.43315C79.7206 3.16453 78.3972 3.15143 77.0705 3.13178C76.5201 3.12195 75.9436 3.16126 75.4227 3.0204C74.8626 2.86644 74.3417 2.85988 73.7914 2.96471C73.4114 3.03678 73.0248 3.10557 72.6416 3.10557C70.2633 3.11212 67.8785 3.22677 65.5167 2.85005C64.3144 2.65678 63.122 2.44058 61.9165 2.82385C61.815 2.85661 61.6971 2.83695 61.5857 2.84351C59.4302 2.94178 57.2747 3.03023 55.1192 3.14161C54.808 3.15799 54.5034 3.28574 54.1954 3.36108C54.0447 4.58624 53.9432 5.7426 53.7467 6.88258C53.5304 8.14705 53.5272 9.38531 53.7434 10.6531C53.9268 11.7406 53.9661 12.8544 54.0611 13.9584C54.0742 14.1222 54.071 14.2925 54.0382 14.4497C53.9858 14.702 53.4748 14.5676 53.5861 14.987C53.6582 15.2523 53.7204 15.5275 53.7467 15.7994C53.8318 16.6871 53.8089 17.565 53.4322 18.4036C53.1111 19.1243 53.0423 19.8909 53.1177 20.6738C53.2029 21.555 53.2717 22.4394 53.3437 23.3206C53.4846 25.0863 53.6516 26.8487 53.7532 28.6176C53.8711 30.6618 53.9497 32.7091 54.0087 34.7565C54.0415 35.9162 54.0087 37.0823 53.9825 38.242C53.9399 40.178 53.822 42.114 53.8449 44.05C53.8744 46.7067 54.0022 49.3601 54.1004 52.0168C54.1103 52.2756 54.2053 52.5344 54.2806 52.8882C55.1028 52.8882 55.8759 52.8652 56.6425 52.9013C56.8849 52.9144 57.2583 53.0356 57.3337 53.2092C57.5237 53.658 57.8316 53.7366 58.2476 53.7333C60.7929 53.7202 63.3382 53.7104 65.8868 53.7137C66.3192 53.7137 66.6108 53.4975 66.8729 53.2026C66.8925 53.1535 66.9416 53.0978 66.9318 53.0552C66.9122 52.9635 66.863 52.8783 66.827 52.7899C66.4961 52.5999 66.1685 52.4132 65.8377 52.2232C66.5551 50.8768 66.5649 50.8768 66.673 49.1242C66.7091 48.5182 66.6927 47.9056 66.6894 47.2963C66.6894 47.2374 66.6108 47.1751 66.5616 47.1063C66.4568 47.2865 66.3651 47.4405 66.1751 47.7681C65.7918 45.7829 65.4446 44.0041 65.1105 42.2254C65.0941 42.1369 65.176 42.0321 65.2218 41.9076C65.3692 42.1336 65.5068 42.3466 65.6837 42.6218C65.913 41.8487 65.5461 41.2492 65.3168 40.653C65.1137 40.1223 64.9663 39.608 65.0482 39.0413C65.1039 38.6646 65.4249 38.3861 65.7361 38.5532C66.162 38.7792 66.5125 38.7071 66.958 38.6384C67.8687 38.5008 68.8056 38.527 69.7326 38.5204C72.7235 38.5008 75.711 38.5008 78.7018 38.4877C79.9827 38.4811 81.2242 38.2158 82.4592 37.9144C83.9235 37.5573 85.2666 36.9055 86.5867 36.2077C91.5791 33.5674 94.4978 29.4268 95.3823 23.8644C95.5887 22.5574 95.5068 21.2012 95.7656 19.9105C95.9424 19.0391 95.8344 18.2857 95.5461 17.5126C94.9401 15.8944 94.547 14.2401 94.6845 12.4908ZM83.0849 23.5991C81.8007 24.1986 80.6149 25.0601 79.1539 25.2435C78.5544 25.3189 77.9549 25.4434 77.3555 25.4696C75.0362 25.5678 72.7169 25.6137 70.3976 25.7185C69.69 25.7513 69.0938 25.5744 68.5763 25.1027C68.5108 25.2042 68.4714 25.3189 68.3928 25.3779C68.0063 25.6661 67.5608 25.5547 67.4953 25.1649C67.4854 25.1092 67.4723 25.0535 67.4756 25.0011C67.5837 23.373 67.5215 21.7286 67.9801 20.0743C68.858 19.7697 69.7294 19.8417 70.5876 20.035C71.0299 20.1333 71.4099 20.1398 71.8652 20.0153C72.3664 19.8778 72.9462 19.9596 73.4834 20.0219C73.9683 20.0776 74.4433 20.3003 75.0034 19.9957C73.8274 19.6288 72.6874 19.5207 71.5278 19.5174C70.3616 19.5141 69.2314 19.3471 68.1373 18.9147C67.9408 18.289 67.8949 17.7092 68.1832 17.09C69.2708 16.7133 70.4566 17.1457 71.7112 16.71C70.4762 16.3202 69.3494 16.6773 67.8982 16.3464C68.5697 16.2416 68.8613 16.1597 69.1528 16.1597C72.0257 16.1531 74.9019 16.1597 77.7748 16.163C78.3251 16.163 78.8722 16.1433 79.3341 16.5659C79.4487 16.6707 79.7272 16.5987 79.9303 16.6118C81.3749 16.7166 82.5902 17.3128 83.5337 18.4004C83.9628 18.895 84.3362 19.4355 84.1135 20.1889C84.0512 20.4019 84.274 20.6869 84.3166 20.9489C84.5066 22.0922 84.12 23.1175 83.0849 23.5991Z" fill="#EEEEEE" />
  <path d="M79.8545 17.7549C80.0085 18.682 80.4572 18.9637 81.9215 19.0522C81.5383 18.813 81.2303 18.5903 80.8995 18.4167C80.5391 18.2267 80.3721 17.7222 79.8545 17.7549Z" fill="#EEEEEE" />
</svg>