<svg width="29" height="44" viewBox="0 0 29 44" fill="none" xmlns="http://www.w3.org/2000/svg">
  <g clip-path="url(#clip0_294_3201)">
    <path d="M6.39067 32.9741C6.43518 33.0439 6.49877 33.1519 6.62594 33.3614V32.5169C6.21898 32.5169 5.80567 32.5169 5.38599 32.5169C4.61659 32.5169 4.54664 32.4534 4.54664 31.6978C4.54664 30.0659 4.54664 28.4341 4.54664 26.8022C4.54664 26.6561 4.53393 26.5101 4.53393 26.4339C3.79631 26.2815 3.09686 26.1418 2.37832 25.9894V23.9512C1.79332 23.9829 1.22104 23.9639 0.667828 24.0655C0.26087 24.1417 0.16549 24.0464 0.178207 23.6781C0.190924 23.1575 0.159131 22.6368 0.190924 22.1225C0.229077 21.5446 0.400762 21.4748 0.973046 21.5764C1.38636 21.6462 1.81875 21.5891 2.32109 21.5891C2.21935 21.4748 2.16213 21.4049 2.12397 21.3605C2.1812 21.2462 2.2893 21.1256 2.29566 21.0049C2.34653 20.135 2.40376 19.2714 2.3974 18.4015C2.3974 17.8047 2.56272 17.3284 2.99512 17.0046C3.48474 17.0871 3.94257 17.1633 4.50213 17.2586C4.40675 15.9442 4.31137 14.6615 4.21599 13.3345C2.94425 13.3154 1.71066 13.1376 0.426197 13.3916C0.394403 13.3091 0.330816 13.1567 0.292664 12.9979C0.197283 12.5979 0.0955437 12.2042 0.0192392 11.7978C-0.088859 11.2327 0.470708 10.7311 1.24011 10.7438C1.03027 10.7692 0.884024 10.7882 0.731415 10.8009C0.731415 10.839 0.731415 10.8771 0.731415 10.9152C1.20196 10.9152 1.66615 10.9152 2.13669 10.9089C2.20664 10.9089 2.32745 10.8136 2.32745 10.7565C2.34017 10.3247 2.44191 9.84212 2.29566 9.46749C2.13033 9.06111 1.64707 8.95951 1.18924 9.03571C0.572447 9.13731 0.381686 8.97221 0.305381 8.36264C0.0764676 6.55297 0.26087 6.62282 1.83783 6.66727C1.92685 6.66727 2.01587 6.65457 2.13669 6.64822C2.20028 6.27359 2.27658 5.918 2.30838 5.55607C2.34017 5.18779 2.31473 4.81315 2.31473 4.41312C2.17484 4.36867 2.02223 4.31153 1.86327 4.26073C1.86327 4.22263 1.86327 4.17818 1.86327 4.14009C1.96501 4.12104 2.06674 4.09564 2.16848 4.09564C2.74077 4.10199 3.31941 4.12739 3.8917 4.12739C4.2605 4.12739 4.45126 3.95594 4.45762 3.54321C4.47034 2.70505 4.48941 2.70505 3.76452 2.08278C3.82811 2.07008 3.8917 2.03198 3.91713 2.05103C4.66746 2.6479 5.54496 2.21612 6.35252 2.33677C6.46062 2.34947 6.69589 2.09548 6.71496 1.94944C6.76583 1.5875 6.72768 1.21287 6.72132 0.838238C6.71496 0.457256 6.86757 0.266764 7.27453 0.241366C8.01214 0.196918 8.74339 0.0953223 9.481 0.0318253C9.74171 0.0127761 10.0088 -0.0189724 10.2568 0.0318253C12.2089 0.450906 14.1801 0.165169 16.1386 0.235016C17.1242 0.273114 18.1098 0.260415 19.089 0.235016C19.6359 0.222316 19.8393 0.444556 19.7885 0.965232C19.7885 0.984281 19.7885 1.00333 19.7885 1.02238C19.7948 2.34947 19.7948 2.33677 21.1175 2.33677C21.5626 2.33677 21.7342 2.11453 21.7533 1.7399C21.7788 1.33352 21.7533 0.927134 21.7533 0.495354C21.5626 0.469955 21.4036 0.444556 21.2383 0.419157C21.2573 0.387409 21.2637 0.35566 21.2828 0.349311C22.0013 0.304863 22.7198 0.266764 23.4384 0.222316C23.8898 0.190568 24.0743 0.412808 24.0806 0.850937C24.0806 1.83514 24.0997 2.813 24.0997 3.7972C24.0997 4.26708 24.2332 4.48297 24.7864 4.45757C25.9437 4.40042 27.1074 4.43852 28.3219 4.43852C28.3219 5.07984 28.3409 5.79736 28.3028 6.50853C28.3028 6.61647 28.023 6.76886 27.864 6.78791C27.4762 6.82601 27.0883 6.80696 26.694 6.79426C26.4079 6.78791 26.2362 6.87681 26.2426 7.20064C26.2489 8.27374 26.2426 9.34685 26.2426 10.458H28.2901C28.2456 10.6485 28.1693 10.8073 28.182 10.9597C28.2201 11.6137 28.3155 12.2614 28.3028 12.909C28.3028 13.0551 27.9785 13.2964 27.7877 13.3218C27.3108 13.3853 26.8276 13.3408 26.2871 13.3408C26.268 13.5313 26.2426 13.69 26.2426 13.8424C26.2426 16.7379 26.2235 19.627 26.268 22.5225C26.2934 24.2242 26.4715 25.9196 26.4842 27.6213C26.4969 28.7262 26.3252 29.8246 26.2553 30.9295C26.2426 31.1263 26.2871 31.3359 26.357 31.52C26.5605 32.0661 26.3443 32.4661 25.7657 32.536C25.6894 32.5423 25.6194 32.536 25.5431 32.536C24.5384 32.555 24.265 32.8344 24.2714 33.8504C24.2714 33.9647 24.2523 34.079 24.2714 34.1805C24.4049 34.6949 24.2332 34.8282 23.7118 34.7457C23.2476 34.6758 22.758 34.733 22.2684 34.733C22.0903 35.3997 22.5545 36.2252 21.8614 36.6252C21.3336 36.93 20.6469 36.9744 19.922 37.1649C19.922 37.4506 19.8839 37.8316 19.9284 38.2126C19.992 38.7714 19.6804 38.9238 19.2226 38.9682C18.8537 39 18.4786 39 18.1161 39.0444C17.8109 39.0825 17.6901 39.1968 17.7219 39.5968C17.7855 40.4033 17.7028 41.216 17.671 42.0288C17.652 42.5241 17.7855 42.8987 18.3896 43.0066C18.2751 43.1019 18.2179 43.2035 18.1479 43.2035C17.3722 43.2289 16.59 43.2797 15.8143 43.2352C15.4073 43.2098 15.2038 42.8479 15.2166 42.4288C15.2484 41.5653 15.2992 40.7017 15.3183 39.8381C15.331 39.2794 15.3501 39.0762 14.6634 39.0444C13.1055 38.9682 13.1881 39.0952 13.2009 37.5522C13.2009 37.4062 13.1881 37.2602 13.1754 37.0824C12.5014 37.0252 11.8464 36.9681 11.1915 36.9109C11.0834 36.2315 10.9499 35.5775 10.8863 34.9108C10.8736 34.7901 11.1661 34.5361 11.325 34.5234C12.0372 34.479 12.7557 34.5044 13.4743 34.5044C13.5124 35.2663 13.5442 35.9013 13.576 36.5299H19.496C19.4578 35.9712 19.4515 35.4822 19.3815 34.9997C19.2989 34.4155 19.4451 34.3012 19.9983 34.3964C20.4879 34.479 20.9966 34.4472 21.499 34.4472C21.5689 34.4472 21.6961 34.3012 21.6897 34.225C21.6643 33.8821 21.6071 33.5456 21.5626 33.2027C21.518 32.8916 21.4672 32.5804 21.429 32.3201C22.3065 32.2566 23.0632 32.2058 23.7436 32.1613V27.8435C23.68 27.8435 23.6164 27.8435 23.5592 27.8372C23.4893 28.815 23.4129 29.7993 23.343 30.7771C23.2603 27.8054 24.087 24.8338 23.1713 21.805C22.669 21.9701 22.0649 21.4938 21.4608 22.0717C21.518 21.3033 21.5816 20.535 21.6452 19.6778C21.2128 19.7032 20.8249 19.6778 20.4561 19.754C19.7885 19.881 19.4578 19.6334 19.4387 18.954C19.4324 18.573 19.3179 18.192 19.3497 17.8237C19.3815 17.4935 19.5468 17.1697 19.6677 16.7951C19.7185 16.9855 19.7567 17.1506 19.8139 17.3665C20.8186 17.3665 21.836 17.3729 22.8534 17.3665C23.6228 17.3602 23.8517 17.0871 23.8199 16.3061C23.7881 15.5124 23.769 14.7123 23.8008 13.9186C23.8263 13.3916 23.6864 13.1694 23.1204 13.2392C22.6881 13.29 22.2429 13.2519 21.8042 13.2519C21.7597 12.5725 21.7215 12.0074 21.6834 11.4422H21.5562C21.499 12.1661 21.4481 12.89 21.3909 13.6138C21.3591 13.6138 21.3273 13.6138 21.3019 13.6138V11.1184C21.003 11.1184 20.6723 11.0994 20.3417 11.1184C19.8203 11.1565 19.5786 10.9597 19.6232 10.4136C19.6549 10.0136 19.6232 9.60718 19.6232 9.20715C19.5723 9.20715 19.5214 9.2008 19.4705 9.19445V10.8771C19.426 10.8771 19.3815 10.8771 19.337 10.8771C19.2989 10.2612 19.2607 9.64528 19.2226 8.99761H17.83C17.8872 10.3501 17.9445 11.6772 17.989 13.0106C18.0144 13.7027 18.0589 14.4076 17.6011 15.0108C17.4993 15.1441 17.3531 15.2965 17.2005 15.3283C16.7744 15.4299 16.3293 15.468 15.8969 15.5442C15.4773 15.6204 15.3183 15.487 15.2865 15.0298C15.2102 13.8551 15.0703 12.6868 14.9495 11.5184C14.9431 11.4295 14.8923 11.347 14.8668 11.2772C13.8176 11.2264 12.7875 11.1502 11.7511 11.1375C11.573 11.1375 11.2424 11.3343 11.236 11.4676C11.1788 12.0899 11.2106 12.7185 11.2106 13.4869C10.7591 13.4361 10.1995 13.4107 9.65905 13.2964C9.10584 13.1821 9.02954 13.1948 9.04861 13.7599C9.06133 14.2298 9.12492 14.6996 9.17579 15.2521C8.47633 15.3283 7.71328 15.4108 6.91844 15.4934C6.88665 16.1855 6.8485 16.8712 6.8167 17.5126C6.31436 17.5126 5.93284 17.5126 5.55768 17.5126C5.14436 17.5126 4.92817 17.7158 4.92181 18.1158C4.90909 19.246 4.92181 20.3763 4.92181 21.6018C5.36692 21.6018 5.76752 21.6208 6.16176 21.6018C6.65138 21.5764 6.88665 21.7669 6.86121 22.2812C6.83578 22.8527 6.84214 23.4305 6.86121 24.0083C6.91844 25.818 7.02018 27.6277 7.0329 29.4437C7.03926 30.358 6.90573 31.2787 6.82942 32.2883C7.38263 32.2883 7.87861 32.3137 8.36823 32.2693C8.4954 32.2566 8.59714 32.0343 8.77519 31.8375C8.87057 32.6693 8.99138 33.5011 9.04225 34.3329C9.09312 35.1711 9.06133 36.0156 9.07405 36.8601C9.08676 37.5459 9.16943 38.2253 9.14399 38.9047C9.10584 40.181 9.0041 41.451 8.94051 42.7273C8.92144 43.1019 8.73703 43.2352 8.37459 43.2543C6.31436 43.3622 6.14904 43.1336 6.42246 41.0827C6.54328 40.1937 6.44154 39.273 6.42246 38.3714C6.40975 37.5395 6.35888 36.7077 6.34616 35.8759C6.33344 34.8981 6.34616 33.9266 6.34616 32.9614L6.39067 32.9741ZM1.58984 23.4432C1.4881 23.5257 1.39272 23.6083 1.23375 23.7416H2.29566C2.29566 23.6972 2.30838 23.6527 2.31473 23.6146C2.06674 23.5638 1.82511 23.5067 1.57712 23.4559C2.18332 23.3374 2.46522 22.9395 2.42283 22.2621C2.42283 22.2304 2.39104 22.1987 2.34653 22.1034C1.79968 22.0653 1.22104 22.0272 0.661469 21.9828C0.623317 22.5987 0.597882 23.094 0.578806 23.4686C0.750491 23.5575 0.871307 23.6718 0.973046 23.6591C1.18288 23.6273 1.38636 23.5194 1.58984 23.4495V23.4432ZM22.262 11.8296C22.1857 11.7915 22.1094 11.7597 22.0395 11.7216C22.0713 11.982 22.0967 12.2423 22.1285 12.4963C22.3192 12.4519 22.51 12.4074 22.7008 12.363C22.8407 12.5407 22.9806 12.7122 23.1967 12.9852C23.4511 13.0424 23.8517 13.1376 24.1823 13.2138V17.8872C24.1442 17.8872 24.106 17.8872 24.0679 17.8935C24.0361 17.7602 23.9979 17.6332 23.9407 17.4046C22.6117 18.0269 21.2383 17.9761 19.8266 17.7729C19.8521 18.3063 19.8711 18.7063 19.8839 18.9984C20.7105 19.1317 21.4545 19.2524 22.1984 19.3667C21.7025 19.6397 21.9504 20.0334 21.9504 20.3064C21.9314 21.5827 21.9504 21.5954 23.2349 21.5637C23.432 21.5637 23.6164 21.3986 23.8898 21.2779C23.9471 21.6208 24.0743 22.0399 24.0743 22.4653C24.0933 25.4116 24.0743 28.3642 24.0933 31.3105C24.0933 31.501 24.2269 31.7232 24.3604 31.8693C24.8182 32.3709 25.3778 32.0724 26.0391 32.0534C26.0391 28.9611 26.0391 25.9069 26.0391 22.8527C26.0391 22.5225 26.0391 22.186 26.0073 21.8558C25.9056 20.4906 25.772 19.1317 25.7084 17.7666C25.6512 16.5601 25.9119 15.3346 25.4541 14.1472C25.6131 14.5473 25.772 14.9473 25.9564 15.4235V13.1122C26.6241 13.0741 27.2981 13.036 27.9976 12.9979C27.9721 12.7693 27.9594 12.5725 27.934 12.3693C27.7623 11.1438 27.7623 11.1565 26.5351 11.1057C26.3189 11.0994 26.109 10.9343 25.842 10.82C25.842 10.82 25.7593 10.9025 25.7402 10.9279C25.7402 10.3882 25.7275 9.81672 25.7402 9.24525C25.7593 8.65473 25.8038 8.0642 25.8293 7.47368C25.8738 6.46408 26.1536 6.26724 27.1646 6.53393C27.9721 6.74981 28.1502 6.61647 28.1438 5.77831C28.1438 5.51797 28.1693 5.25128 28.112 5.00365C28.0802 4.87665 27.9022 4.68616 27.7877 4.68616C26.7513 4.66076 25.7084 4.64171 24.672 4.68616C23.9534 4.71791 23.928 4.71156 23.8835 3.98134C23.8263 3.04159 23.7054 2.10818 23.6482 1.16842C23.6164 0.609648 23.2858 0.469955 22.8216 0.450906C22.6563 0.450906 22.4846 0.457256 22.3192 0.450906C22.0331 0.425507 21.9123 0.552501 21.9186 0.838238C21.925 1.35256 21.9186 1.86054 21.9186 2.43836C21.2065 2.50821 20.5007 2.57806 19.7058 2.6606C19.5341 2.20977 19.3561 1.7272 19.178 1.24462C19.2098 1.23192 19.2353 1.21922 19.2671 1.21287C19.3307 1.44781 19.4006 1.68275 19.4642 1.92404C19.5596 0.177868 19.8648 0.552501 18.2306 0.450906C18.1034 0.444556 17.9699 0.450906 17.8427 0.450906C16.0813 0.469955 14.3136 0.495354 12.5523 0.495354C11.0516 0.495354 9.54459 0.469955 8.04393 0.469955C7.66241 0.469955 7.28725 0.552501 6.8167 0.603299C6.90573 0.946183 6.93116 1.22557 7.04562 1.46686C7.3254 2.08278 7.07105 2.53361 6.38431 2.56536C6.05366 2.58441 5.71029 2.59711 5.37963 2.56536C4.91545 2.51456 4.75648 2.73045 4.7374 3.16223C4.71833 3.65751 4.65474 4.15278 4.62931 4.64806C4.62931 4.67981 4.7692 4.71156 4.83914 4.74331C4.35588 4.79411 3.88534 4.76871 3.40843 4.72426C2.70897 4.65441 2.60088 4.75601 2.5818 5.44813C2.56908 5.97515 2.53093 6.50218 2.49914 7.0673C1.10658 6.49583 0.375327 6.94666 0.489784 8.21025C0.489784 8.2293 0.489784 8.24835 0.489784 8.2674C0.527936 8.62933 0.680545 8.80712 1.09386 8.80077C2.74077 8.77537 2.53729 8.64838 2.55001 10.3184C2.55001 11.1311 2.53093 11.1502 1.69794 11.1502C0.483425 11.1502 0.50886 11.1502 0.470708 12.3503C0.451632 12.909 0.6106 13.1122 1.18288 13.0805C2.45463 13.017 3.73273 13.0043 4.99811 12.9662C4.91545 13.0868 4.75012 13.2138 4.75012 13.3408C4.73105 14.6235 4.7374 15.9061 4.7374 17.1633C5.34148 17.2014 5.90741 17.2395 6.53056 17.2776C6.53056 16.9093 6.56871 16.4903 6.5242 16.0839C6.46062 15.487 6.64502 15.2267 7.2491 15.1822C7.67513 15.1505 8.10116 15.106 8.52084 15.0806C8.896 15.0616 8.87057 14.8711 8.78155 14.5917C8.64165 14.1726 8.53356 13.7472 8.38095 13.2075C9.28388 13.1249 10.0279 13.0551 10.74 12.9916C10.7909 12.3503 10.8418 11.7153 10.899 11.0105C11.3505 10.9787 11.8083 10.9216 12.2598 10.9152C13.0928 10.9089 13.9321 10.9597 14.7651 10.9343C15.2929 10.9216 15.4773 11.1121 15.4963 11.6391C15.5345 12.7947 15.649 13.9504 15.7316 15.1949C16.2085 15.1378 16.6091 15.0933 17.0034 15.0489C17.3785 15.0108 17.423 14.7695 17.3086 14.4965C16.6664 12.9281 16.8889 11.2835 16.9016 9.66433C16.9016 8.71187 16.9779 8.71187 17.919 8.69283C18.1797 8.69283 18.4404 8.69283 18.7011 8.69283C19.178 8.69283 19.6677 8.79442 20.0301 8.34359C20.0746 8.29279 20.2399 8.33724 20.348 8.33724C20.3608 8.37534 20.3735 8.41344 20.3862 8.45154C20.1891 8.59758 19.9856 8.73727 19.8203 8.85792C19.9474 9.43574 20.0746 10.0009 20.1764 10.4644C20.6024 10.5152 21.0857 10.439 21.3527 10.6422C21.7279 10.9343 21.9441 11.4359 22.2302 11.8486L22.262 11.8296ZM6.83578 31.9962C6.66409 28.7515 6.49877 25.5132 6.33344 22.332C5.79931 22.186 5.30333 22.059 4.75648 21.9129C4.75648 22.4209 4.68653 22.859 4.77556 23.2654C4.89001 23.7988 4.62295 23.9131 4.21599 23.9448C3.10957 24.0337 3.10957 24.0274 3.0905 25.1005C3.0905 25.1449 3.06506 25.1894 3.02691 25.3227C2.98876 25.0941 2.96332 24.9671 2.94425 24.8338C2.86794 24.9227 2.86158 25.0116 2.83615 25.1005C2.63903 25.8053 2.71533 25.9132 3.44659 25.9196C3.81539 25.9196 4.1842 25.9196 4.71197 25.9196C4.72469 27.9007 5.21431 29.9008 4.71197 31.9962H6.83578ZM8.65437 42.9368C8.65437 41.343 8.66709 39.8318 8.65437 38.3142C8.64165 37.3364 8.56535 36.3585 8.57171 35.3806C8.57171 34.5742 8.67981 33.7678 8.70524 32.9551C8.70524 32.8154 8.55899 32.555 8.48269 32.555C7.97399 32.555 7.46529 32.6122 6.90573 32.6566V39.8826C6.94388 39.8826 6.98839 39.8826 7.02654 39.8826V34.9171C7.22366 36.7522 7.4335 38.5936 6.99475 40.4223C6.89301 40.8477 6.85486 41.3049 6.8485 41.743C6.82306 42.9622 6.83578 42.9622 8.07573 42.9304C8.10116 42.9304 8.1266 42.905 8.25377 42.8352H7.31268C7.79595 42.5812 8.26649 42.5241 8.66073 42.9304L8.65437 42.9368ZM15.7761 38.8349C15.6871 39.1079 15.5218 39.3619 15.5472 39.5841C15.668 40.4795 15.8079 41.3684 16.0114 42.251C16.1958 43.0447 16.3357 43.1019 17.2323 43.0193C17.3022 41.5462 17.3722 40.0731 17.4358 38.6126C17.5311 38.6698 17.6583 38.8095 17.7855 38.8095C18.2624 38.8095 18.7456 38.7777 19.2226 38.7015C19.3497 38.6825 19.5405 38.4729 19.5468 38.346C19.5596 37.9015 19.5023 37.4506 19.4578 36.8601C17.4675 36.9744 15.4582 37.0951 13.398 37.2157C13.4806 37.6856 13.5824 38.0285 13.5951 38.3714C13.6078 38.7523 13.7986 38.8349 14.1292 38.8285C14.7079 38.8158 15.2929 38.8285 15.7698 38.8285L15.7761 38.8349ZM2.81071 17.538C2.74713 18.6365 2.67718 19.6651 2.63903 20.7001C2.63903 20.8525 2.75349 21.1129 2.86794 21.1509C3.38936 21.3224 3.92985 21.4303 4.54028 21.5764C4.54028 20.2556 4.553 19.1 4.52121 17.938C4.52121 17.8047 4.30501 17.5761 4.17148 17.5634C3.72001 17.5189 3.25582 17.5443 2.81071 17.5443V17.538ZM23.7436 32.555C23.2031 32.555 22.7453 32.5296 22.2875 32.5677C22.1603 32.5804 21.9441 32.7582 21.9377 32.8789C21.8996 33.3678 21.9186 33.8631 21.9186 34.3647C22.4655 34.4155 22.9424 34.4599 23.4129 34.5107C23.8008 34.5488 23.9598 34.3774 23.9153 33.9964C23.8581 33.5265 23.8008 33.063 23.7436 32.5614V32.555ZM19.7948 36.6315C20.3862 36.6315 20.8313 36.6315 21.2701 36.6315C21.5944 36.6315 21.7788 36.5045 21.766 36.1363C21.7088 34.3901 21.9632 34.7584 20.3926 34.7012C20.3035 34.7012 20.1891 34.6695 20.1191 34.7139C19.9983 34.7901 19.8139 34.9044 19.8076 35.006C19.7758 35.533 19.7948 36.0601 19.7948 36.6379V36.6315ZM13.2136 36.5998C13.2136 36.0601 13.2326 35.5775 13.2009 35.1013C13.1945 34.987 12.9974 34.7838 12.902 34.7901C12.3933 34.8155 11.8846 34.8981 11.3823 34.9552C11.0898 36.5744 11.1533 36.6506 12.7112 36.6315C12.8575 36.6315 13.0037 36.6125 13.2136 36.5998ZM3.87898 21.697C3.8599 21.7478 3.84083 21.7986 3.82175 21.8494C3.24947 21.7161 3.00148 21.9129 3.05235 22.4971C3.06506 22.6431 2.88066 22.8019 2.81707 22.967C2.75349 23.1257 2.64539 23.3289 2.69626 23.4622C2.74077 23.5829 2.96968 23.7035 3.11593 23.6972C3.40843 23.6972 3.70729 23.6337 3.98708 23.5384C4.37496 23.4114 4.70561 22.6622 4.52757 22.1542C4.45762 21.951 4.10789 21.8431 3.88534 21.697H3.87898ZM17.2259 13.8805C17.3086 13.8742 17.3849 13.8615 17.4675 13.8551V8.69917C17.3467 8.86427 17.1814 8.99126 17.1687 9.13096C17.0924 9.91832 17.0097 10.712 17.0224 11.4994C17.0352 12.2931 17.156 13.0868 17.2259 13.8805ZM6.56871 25.9831C6.60051 25.9831 6.6323 25.9831 6.65774 25.9831V22.2875C6.62594 22.2875 6.59415 22.2875 6.56871 22.2875V25.9767V25.9831ZM17.6965 14.4965C17.741 14.4965 17.7855 14.4965 17.8364 14.4965C17.9826 13.0233 17.9381 11.5502 17.6965 10.0771V14.4965ZM25.9246 10.2803C25.9501 10.2803 25.9819 10.2803 26.0073 10.2803V7.32129C25.9819 7.32129 25.9501 7.32129 25.9246 7.32129V10.2803ZM13.7286 36.8665C13.7286 36.9236 13.7286 36.9744 13.7286 37.0316C14.3136 36.9935 14.8986 36.949 15.4773 36.9109C15.4773 36.8982 15.4773 36.8855 15.4773 36.8665H13.7223H13.7286Z" fill="#EEEEEE" />
    <path d="M19.8904 31.8313C19.5216 32.8409 18.5678 32.4409 17.7603 32.4536C17.4423 32.4536 17.1753 32.2186 17.2897 31.7995C17.3151 31.7106 17.3024 31.6154 17.3088 31.5202C17.3787 30.6439 17.2516 30.5106 16.3359 30.4915C16.1133 30.4915 15.8972 30.4915 15.6237 30.4915C15.5792 31.2027 15.5347 31.8757 15.4966 32.4917C14.8607 32.4917 14.2948 32.4917 13.7288 32.4917C13.2392 32.4917 13.023 32.2631 13.0548 31.7868C13.0739 31.5265 13.112 31.2725 13.1311 31.0122C13.182 30.0851 13.4681 29.8692 14.4029 30.047C15.1595 30.1931 15.3312 30.0597 15.3249 29.2724C15.3249 28.2247 15.5156 28.2691 14.3075 28.2691C13.2138 28.2691 13.2074 28.2691 13.2138 27.2024C13.2265 25.9388 13.0039 25.9959 14.3965 26.0023C14.5427 26.0023 14.689 25.9642 14.8352 25.9578C15.2295 25.9388 15.522 26.034 15.5156 26.5166C15.5029 26.9928 15.5156 27.4754 15.5156 27.9389C16.1642 27.8881 16.7619 27.8373 17.3978 27.7865C17.3088 27.4246 17.2261 27.1262 17.1562 26.8277C17.0481 26.3515 17.2261 26.0594 17.7094 26.015C18.2626 25.9705 18.8222 25.9705 19.3754 25.9959C19.6488 26.0086 19.8205 26.1356 19.7632 26.5039C19.6933 26.9166 19.7505 27.3547 19.7442 27.7802C19.7378 28.1231 19.6106 28.3199 19.1973 28.2755C18.7204 28.2247 18.2372 28.2628 17.6967 28.2628V30.1232C18.1545 30.0724 18.6187 30.0216 19.0701 29.9708C19.0892 30.0089 19.1274 30.1359 19.1655 30.1359C19.7378 30.1359 19.7378 30.5296 19.7569 30.9423C19.7696 31.2344 19.8459 31.5329 19.8968 31.8249L19.8904 31.8313ZM17.2452 30.155C17.3088 29.4882 17.366 28.9104 17.4232 28.3009H15.5919V30.155H17.2452ZM13.4045 30.5677C13.4554 31.0693 13.449 31.4821 13.5635 31.8567C13.6207 32.0345 13.9196 32.2186 14.1231 32.2377C14.5046 32.2694 14.8988 32.1805 15.2867 32.1297C15.3058 32.1297 15.3249 32.0281 15.3249 31.9773C15.3249 31.4821 15.3249 30.9931 15.3249 30.4026C14.6572 30.4598 14.0658 30.5106 13.4045 30.574V30.5677ZM19.5025 31.6852C19.4135 30.4598 19.0765 30.2185 17.6585 30.4407V32.098C18.2944 31.9519 18.8985 31.8186 19.5025 31.6852ZM13.5953 28.0532C13.9196 28.0532 14.2121 28.0469 14.5046 28.0532C15.026 28.0723 15.2231 27.7992 15.2295 27.3103C15.2486 26.3451 15.2231 26.3134 14.2693 26.3515C14.0531 26.3578 13.8433 26.3832 13.5953 26.4023V28.0532ZM19.4835 26.3515C19.191 26.3515 18.9684 26.3515 18.7522 26.3515C17.9595 26.3515 17.5949 26.7558 17.6585 27.5643C17.6585 27.596 17.6903 27.6278 17.7221 27.6849C17.792 27.6976 17.8811 27.7167 17.9701 27.723C18.3771 27.7548 18.7904 27.7421 19.1846 27.8246C19.5471 27.9008 19.5534 27.9453 19.5471 27.5897C19.5471 27.2024 19.5089 26.815 19.4771 26.3451L19.4835 26.3515Z" fill="#EEEEEE" />
    <path d="M10.9751 22.0142C10.9751 21.4808 10.956 20.9538 10.9815 20.4204C11.0005 20.0077 10.8225 19.7854 10.4346 19.741C9.88142 19.6775 9.32821 19.6584 8.8513 20.1855C8.5588 19.2711 8.57152 18.4203 8.87674 17.5757C8.90853 17.4805 9.09294 17.3853 9.20739 17.3853C10.4092 17.3853 11.6173 17.3916 12.8191 17.4043C13.1689 17.4043 13.3088 17.6075 13.3151 17.9377C13.3406 18.8774 13.3851 19.8235 13.3978 20.7633C13.4105 21.7666 12.8128 22.1793 11.8526 21.8745C11.5855 21.7856 11.2613 21.6078 10.9751 22.0205V22.0142ZM9.39815 19.4934C9.63978 19.4489 9.81783 19.4045 9.99587 19.3918C10.9242 19.341 11.2867 19.595 11.274 20.2744C11.2528 21.2099 11.717 21.648 12.6665 21.5888C12.7174 21.5888 12.7746 21.5634 12.9336 21.5189C13.0035 20.4014 13.0798 19.2584 13.1498 18.1472C11.7572 17.944 10.5046 17.7599 9.26462 17.5821C9.30913 18.2552 9.35364 18.8393 9.39815 19.487V19.4934Z" fill="#EEEEEE" />
    <g clip-path="url(#clip1_294_3201)">
      <path d="M7.02374 32.5484H8.4913C8.6819 32.5484 8.83438 32.7004 8.83438 32.8905V42.9632C8.83438 43.1533 8.6819 43.3053 8.4913 43.3053H7.02374C6.83314 43.3053 6.68066 43.1533 6.68066 42.9632C6.68066 39.5993 6.68066 36.2544 6.68066 32.8905C6.68066 29.5266 6.83314 32.5484 7.02374 32.5484Z" fill="#EEEEEE" />
      <path d="M15.3143 42.8679V39.466C15.3143 39.2189 15.1237 39.0289 14.876 39.0289H13.6181C13.3703 39.0289 13.1797 38.8388 13.1797 38.5918V36.8623C15.2 36.8623 17.2012 36.8623 19.2215 36.8623C21.2418 36.8623 19.6599 37.0524 19.6599 37.2994V38.5538C19.6599 38.8008 19.4693 38.9909 19.2215 38.9909H17.9445C17.6968 38.9909 17.5062 39.1809 17.5062 39.428V42.8679C17.5062 43.115 17.3156 43.3051 17.0678 43.3051H15.7908C15.5431 43.3051 15.3525 43.115 15.3525 42.8679H15.3143Z" fill="#EEEEEE" />
      <path d="M23.9481 32.2442V22.1334C23.9481 21.9624 23.7956 21.8103 23.6241 21.8103H22.1375C21.9659 21.8103 21.8135 21.6583 21.8135 21.4872V19.9858C21.8135 19.8148 21.661 19.6627 21.4894 19.6627H20.0028C19.8313 19.6627 19.6788 19.5107 19.6788 19.3396V17.8572C19.6788 17.6862 19.8313 17.5342 20.0028 17.5342H23.605C23.7766 17.5342 23.929 17.3821 23.929 17.2111V13.5431C23.929 13.372 23.7766 13.22 23.605 13.22H22.1565C21.985 13.22 21.8325 13.0679 21.8325 12.8969V11.3955C21.8325 11.2244 21.68 11.0724 21.5085 11.0724H20.0028C19.8313 11.0724 19.6788 10.9204 19.6788 10.7493V9.2669C19.6788 9.09586 19.5263 8.94382 19.3548 8.94382H17.83C17.6585 8.94382 17.506 9.09586 17.506 9.2669V15.0065C17.506 15.1775 17.3536 15.3296 17.182 15.3296H15.6763C15.5048 15.3296 15.3523 15.1775 15.3523 15.0065V11.4145C15.3523 11.2434 15.1999 11.0914 15.0283 11.0914H11.3499C11.1783 11.0914 11.0259 11.2434 11.0259 11.4145V12.8779C11.0259 13.0489 10.8734 13.201 10.7018 13.201H9.19615C9.02462 13.201 8.87214 13.353 8.87214 13.5241V15.0255C8.87214 15.1965 8.71967 15.3486 8.54813 15.3486H7.04244C6.87091 15.3486 6.71843 15.5006 6.71843 15.6716V17.2111C6.71843 17.3821 6.56595 17.5342 6.39442 17.5342H4.86967C4.69814 17.5342 4.54566 17.3821 4.54566 17.2111V13.5621C4.54566 13.391 4.39319 13.239 4.22165 13.239H0.600373C0.428839 13.239 0.276367 13.0869 0.276367 12.9159V11.4335C0.276367 11.2624 0.428839 11.1104 0.600373 11.1104H2.04889C2.22042 11.1104 2.3729 10.9584 2.3729 10.7873V9.2669C2.3729 9.09586 2.22042 8.94382 2.04889 8.94382H0.600373C0.428839 8.94382 0.276367 8.79177 0.276367 8.62073V7.11932C0.276367 6.94827 0.428839 6.79623 0.600373 6.79623H2.06795C2.23948 6.79623 2.39195 6.64419 2.39195 6.47314V4.97174C2.39195 4.80069 2.54443 4.64865 2.71596 4.64865H4.22165C4.39319 4.64865 4.54566 4.49661 4.54566 4.32556V2.82415C4.54566 2.6531 4.69814 2.50106 4.86967 2.50106H6.37537C6.5469 2.50106 6.69937 2.34902 6.69937 2.17797V0.676566C6.69937 0.505519 6.85185 0.353478 7.02338 0.353478H19.3167C19.4882 0.353478 19.6407 0.505519 19.6407 0.676566V2.12096C19.6407 2.29201 19.7932 2.44405 19.9647 2.44405H21.4894C21.661 2.44405 21.8135 2.29201 21.8135 2.12096V0.657561C21.8135 0.486514 21.9659 0.334473 22.1375 0.334473H23.6241C23.7956 0.334473 23.9481 0.486514 23.9481 0.657561V4.26854C23.9481 4.43959 24.1006 4.59163 24.2721 4.59163H27.9315C28.103 4.59163 28.2555 4.74367 28.2555 4.91472V6.41613C28.2555 6.58718 28.103 6.73922 27.9315 6.73922H26.4639C26.2924 6.73922 26.1399 6.89126 26.1399 7.0623V10.7113C26.1399 10.8823 26.2924 11.0344 26.4639 11.0344H27.9125C28.084 11.0344 28.2365 11.1864 28.2365 11.3575V12.8589C28.2365 13.0299 28.084 13.182 27.9125 13.182H26.4449C26.2733 13.182 26.1209 13.334 26.1209 13.5051V32.2442C26.1209 32.4152 25.9684 32.5672 25.7969 32.5672H24.2721C24.1006 32.5672 23.9481 32.4152 23.9481 32.2442Z" fill="#EEEEEE" />
      <path d="M4.52675 21.8105H6.35645C6.54705 21.8105 6.69952 21.9625 6.69952 22.1526V32.2253C6.69952 32.4154 6.54705 32.5674 6.35645 32.5674H4.88888C4.69829 32.5674 4.54581 32.4154 4.54581 32.2253V26.4477C4.54581 26.2577 4.39334 26.1056 4.20274 26.1056H2.71611C2.52552 26.1056 2.37305 25.9536 2.37305 25.7635V23.939H4.20274C4.39334 23.939 4.54581 23.787 4.54581 23.597V21.7725L4.52675 21.8105Z" fill="#EEEEEE" />
      <path d="M4.24137 17.4961C4.39384 17.4961 4.52726 17.6291 4.52726 17.7812C4.52726 19.1305 4.52726 20.4609 4.52726 21.8103H2.35449V17.8002C2.35449 17.6481 2.48791 17.5151 2.64038 17.5151H4.22231L4.24137 17.4961Z" fill="#EEEEEE" />
      <path d="M2.39246 23.9581H0.619939C0.429346 23.9581 0.257812 23.8061 0.257812 23.597V22.1716C0.257812 21.9816 0.410286 21.8105 0.619939 21.8105C1.21078 21.8105 1.80162 21.8105 2.39246 21.8105V23.9771V23.9581Z" fill="#EEEEEE" />
      <path d="M23.7194 32.5483H22.0041C21.8778 32.5483 21.7754 32.6504 21.7754 32.7764V34.4869C21.7754 34.6128 21.8778 34.7149 22.0041 34.7149H23.7194C23.8458 34.7149 23.9482 34.6128 23.9482 34.4869V32.7764C23.9482 32.6504 23.8458 32.5483 23.7194 32.5483Z" fill="#EEEEEE" />
      <path d="M21.528 34.6958H19.8889C19.7415 34.6958 19.6221 34.8149 19.6221 34.9619V36.5963C19.6221 36.7433 19.7415 36.8624 19.8889 36.8624H21.528C21.6754 36.8624 21.7948 36.7433 21.7948 36.5963V34.9619C21.7948 34.8149 21.6754 34.6958 21.528 34.6958Z" fill="#EEEEEE" />
      <path d="M8.87305 19.3207V17.8953C8.87305 17.7053 9.02553 17.5532 9.21612 17.5532H12.7612C12.9518 17.5532 13.1042 17.7053 13.1042 17.8953V21.4113C13.1042 21.6013 12.9518 21.7534 12.7612 21.7534H11.3508C11.1602 21.7534 11.0077 21.6013 11.0077 21.4113V20.0049C11.0077 19.8148 10.8552 19.6628 10.6646 19.6628H9.21612C9.02553 19.6628 8.87305 19.5108 8.87305 19.3207Z" fill="#EEEEEE" />
      <path d="M15.3339 28.2342H13.4851C13.3326 28.2342 13.1992 28.1011 13.1992 27.9491V26.4477C13.1992 26.2956 13.3326 26.1626 13.4851 26.1626H15.0289C15.1814 26.1626 15.3148 26.2956 15.3148 26.4477C15.3148 27.0558 15.3148 27.664 15.3148 28.2532L15.3339 28.2342Z" fill="#EEEEEE" />
      <path d="M17.4878 28.2531V26.4286C17.4878 26.2766 17.6212 26.1436 17.7737 26.1436H19.2985C19.4509 26.1436 19.5843 26.2766 19.5843 26.4286V27.949C19.5843 28.1011 19.4509 28.2341 19.2985 28.2341H17.4688L17.4878 28.2531Z" fill="#EEEEEE" />
      <path d="M17.4687 28.2529C17.4687 28.9751 17.4687 29.6973 17.4687 30.4195H15.2959C15.2959 29.6973 15.2959 28.9751 15.2959 28.2339C16.0202 28.2339 16.7444 28.2339 17.4687 28.2339V28.2529Z" fill="#EEEEEE" />
      <path d="M15.3143 30.4009V32.2064C15.3143 32.3774 15.1809 32.5105 15.0094 32.5105H13.5227C13.3512 32.5105 13.2178 32.3774 13.2178 32.2064V30.724C13.2178 30.5529 13.3512 30.4199 13.5227 30.4199C14.1326 30.4199 14.7235 30.4199 15.3334 30.4199L15.3143 30.4009Z" fill="#EEEEEE" />
      <path d="M17.4688 30.4199H19.3175C19.47 30.4199 19.6034 30.5529 19.6034 30.705V32.2444C19.6034 32.3964 19.47 32.5295 19.3175 32.5295H17.7546C17.6022 32.5295 17.4688 32.3964 17.4688 32.2444C17.4688 31.6362 17.4688 31.009 17.4688 30.4009V30.4199Z" fill="#EEEEEE" />
      <path d="M13.1796 36.8625H11.3118C11.1593 36.8625 11.0449 36.7485 11.0449 36.5964V35.019C11.0449 34.867 11.1593 34.7529 11.3118 34.7529H12.8937C13.0462 34.7529 13.1605 34.867 13.1605 35.019C13.1605 35.6272 13.1605 36.2543 13.1605 36.8815L13.1796 36.8625Z" fill="#EEEEEE" />
    </g>
  </g>
  <defs>
    <clipPath id="clip0_294_3201">
      <rect width="28.3281" height="43.2859" fill="white" />
    </clipPath>
    <clipPath id="clip1_294_3201">
      <rect width="27.8267" height="42.9517" fill="white" transform="translate(0.333984 0.334473)" />
    </clipPath>
  </defs>
</svg>